<?xml version="1.0" encoding="UTF-8"?><svg xmlns="http://www.w3.org/2000/svg" xmlns:xlink="http://www.w3.org/1999/xlink" height="224.6" preserveAspectRatio="xMidYMid meet" version="1.0" viewBox="-0.3 -0.6 256.7 224.6" width="256.7" zoomAndPan="magnify"><g><g id="change1_1"><path d="M 128 4 L 252 116 L 4 116 Z M 128 4" fill="#ffa71a"/></g><g id="change2_1"><path d="M 14.398438 112 L 241.605469 112 L 128 9.390625 Z M 252 120 L 4 120 C 2.34375 120 0.859375 118.980469 0.265625 117.4375 C -0.328125 115.890625 0.0898438 114.140625 1.320312 113.03125 L 125.320312 1.03125 C 126.84375 -0.34375 129.160156 -0.34375 130.679688 1.03125 L 254.679688 113.03125 C 255.910156 114.140625 256.328125 115.890625 255.734375 117.4375 C 255.140625 118.980469 253.65625 120 252 120" fill="#414042"/></g><g id="change2_2"><path d="M 59.996094 120 C 59.289062 120 58.574219 119.8125 57.925781 119.417969 C 56.035156 118.269531 55.433594 115.8125 56.582031 113.921875 L 124.582031 1.921875 C 125.726562 0.0351562 128.1875 -0.566406 130.074219 0.578125 C 131.964844 1.726562 132.566406 4.1875 131.417969 6.074219 L 63.417969 118.074219 C 62.667969 119.3125 61.347656 120 59.996094 120" fill="#414042"/></g><g id="change3_1"><path d="M 196 116 L 128 4 L 128 115.367188 Z M 196 116" fill="#ffba55"/></g><g id="change2_3"><path d="M 132 111.40625 L 188.851562 111.933594 L 132 18.296875 Z M 196 120 C 195.988281 120 195.976562 120 195.964844 120 L 127.964844 119.367188 C 125.769531 119.347656 124 117.5625 124 115.367188 L 124 4 C 124 2.203125 125.195312 0.628906 126.921875 0.148438 C 128.652344 -0.335938 130.488281 0.390625 131.417969 1.921875 L 199.417969 113.921875 C 200.171875 115.164062 200.195312 116.714844 199.476562 117.976562 C 198.765625 119.226562 197.4375 120 196 120" fill="#414042"/></g><g id="change2_4"><path d="M 139.996094 224 C 138.203125 224 136.574219 222.789062 136.117188 220.96875 L 132.117188 204.96875 C 131.820312 203.773438 132.089844 202.507812 132.847656 201.535156 C 133.605469 200.566406 134.769531 200 136 200 L 140 200 C 177.496094 200 208 169.492188 208 132 C 208 129.789062 209.789062 128 212 128 C 214.210938 128 216 129.789062 216 132 C 216 173.53125 182.515625 207.390625 141.121094 207.992188 L 143.882812 219.027344 C 144.414062 221.171875 143.113281 223.34375 140.96875 223.878906 C 140.644531 223.960938 140.320312 224 139.996094 224" fill="#414042"/></g><g id="change2_5"><path d="M 116.003906 224 C 115.683594 224 115.355469 223.960938 115.03125 223.878906 C 112.886719 223.34375 111.585938 221.171875 112.121094 219.027344 L 114.878906 207.992188 C 73.484375 207.390625 40 173.53125 40 132 C 40 129.789062 41.792969 128 44 128 C 46.210938 128 48 129.789062 48 132 C 48 169.492188 78.503906 200 116 200 L 120 200 C 121.230469 200 122.394531 200.566406 123.152344 201.535156 C 123.910156 202.507812 124.179688 203.773438 123.882812 204.96875 L 119.882812 220.96875 C 119.425781 222.789062 117.796875 224 116.003906 224" fill="#414042"/></g><g id="change3_2"><path d="M 136 204 C 136 208.417969 132.417969 212 128 212 C 123.582031 212 120 208.417969 120 204 C 120 199.582031 123.582031 196 128 196 C 132.417969 196 136 199.582031 136 204" fill="#ffba55"/></g><g id="change2_6"><path d="M 128 200 C 125.796875 200 124 201.792969 124 204 C 124 206.207031 125.796875 208 128 208 C 130.207031 208 132 206.207031 132 204 C 132 201.792969 130.207031 200 128 200 Z M 128 216 C 121.382812 216 116 210.617188 116 204 C 116 197.382812 121.382812 192 128 192 C 134.617188 192 140 197.382812 140 204 C 140 210.617188 134.617188 216 128 216" fill="#414042"/></g></g></svg>