<?xml version="1.0" encoding="UTF-8"?><svg xmlns="http://www.w3.org/2000/svg" xmlns:xlink="http://www.w3.org/1999/xlink" height="472.4" preserveAspectRatio="xMidYMid meet" version="1.0" viewBox="80.6 15.6 338.8 472.4" width="338.8" zoomAndPan="magnify"><g id="change1_1"><path d="M 419.414062 123.832031 C 409.617188 87.296875 391.332031 53.066406 366.414062 24.609375 C 363.703125 21.507812 360.734375 18.355469 356.824219 17.050781 C 352.636719 15.648438 348.066406 16.59375 343.730469 17.4375 C 332.089844 19.699219 291.039062 43.011719 250 43.011719 C 208.960938 43.011719 167.929688 19.703125 156.269531 17.4375 C 151.933594 16.59375 147.363281 15.648438 143.171875 17.050781 C 139.265625 18.355469 136.296875 21.507812 133.582031 24.609375 C 108.667969 53.066406 90.382812 87.296875 80.585938 123.832031 C 87.488281 123.335938 93.847656 118.304688 95.921875 111.703125 L 95.566406 113.039062 C 88.277344 126.222656 95.285156 142.902344 92.007812 157.433594 C 100.324219 154.820312 109.9375 145.292969 113.546875 137.355469 C 108.871094 176.335938 112.394531 223.582031 126.847656 260.082031 C 129.761719 254.457031 133.628906 249.328125 138.230469 244.976562 L 137.085938 254.609375 C 135.722656 266.046875 145.722656 304.71875 147.171875 304.585938 C 147.902344 304.515625 155.226562 283.773438 157.085938 281.53125 C 159.15625 296.148438 156.222656 308.070312 158.71875 321.125 C 159.46875 325.0625 160.105469 329.042969 161.359375 332.851562 C 162.527344 336.398438 164.230469 339.769531 166.386719 342.820312 C 169.972656 347.886719 174.789062 352.03125 178.027344 357.324219 C 180.574219 361.492188 182.066406 366.242188 184.675781 370.371094 C 187.28125 374.5 190.175781 386.667969 195.058594 386.546875 C 197.914062 380.648438 202.527344 366.480469 204.074219 359.519531 C 204.457031 359.574219 203.816406 359.480469 204.195312 359.535156 C 202.675781 393.234375 214.460938 426.140625 236.523438 451.648438 C 246.414062 463.085938 251.011719 479.617188 246.96875 482.722656 C 239.996094 488.089844 268.433594 469.847656 272.726562 446.238281 C 274.46875 436.644531 278.320312 428.644531 282.28125 422.527344 C 293.195312 405.667969 298.585938 385.777344 296.742188 365.78125 C 296.433594 362.425781 296.054688 360.242188 295.875 359.3125 C 297.285156 366.234375 303.820312 383.933594 306.707031 389.898438 C 311.589844 390.023438 319.425781 361.492188 321.972656 357.324219 C 325.210938 352.03125 330.027344 347.886719 333.613281 342.820312 C 335.769531 339.769531 337.472656 336.398438 338.640625 332.851562 C 339.894531 329.042969 340.53125 325.0625 341.28125 321.125 C 343.777344 308.070312 342.773438 295.929688 347.824219 283.632812 C 348.179688 286.699219 357.664062 302.371094 358.394531 302.4375 C 359.84375 302.570312 364.316406 266.382812 362.796875 253.632812 L 361.769531 244.976562 C 366.371094 249.328125 370.238281 254.457031 373.152344 260.082031 C 387.605469 223.582031 391.128906 176.335938 386.453125 137.355469 C 390.0625 145.292969 399.675781 154.820312 407.992188 157.433594 C 404.714844 142.902344 411.289062 131.230469 404.433594 113.039062 L 404.074219 111.703125 C 406.152344 118.304688 412.511719 123.335938 419.414062 123.832031" fill="#100f0d"/></g></svg>